<svg id="Layer_1" data-name="Layer 1" xmlns="http://www.w3.org/2000/svg" viewBox="0 0 102.94 56.63"><defs><style>.cls-1{fill:#ec4235;}.cls-2{fill:#507fc1;}.cls-3{fill:#1a9d54;}.cls-4{fill:#f4bd1d;}</style></defs><title>DSC 2</title><path class="cls-1" d="M210.93,120,246.5,98.62c3.05-1.84,3.85-6.35,1.79-10.09h0c-2.06-3.73-6.21-5.28-9.26-3.45l-35.56,21.36c-3.05,1.83-3.86,6.35-1.79,10.08h0C203.74,120.26,207.88,121.8,210.93,120Z" transform="translate(-200.53 -84.31)"/><path class="cls-2" d="M211,105.13l35.52,21.35c3,1.83,3.82,6.38,1.74,10.16h0c-2.09,3.79-6.26,5.37-9.3,3.54l-35.53-21.34c-3-1.83-3.82-6.38-1.73-10.17h0C203.82,104.89,208,103.3,211,105.13Z" transform="translate(-200.53 -84.31)"/><path class="cls-3" d="M293.07,120,257.5,98.62c-3.05-1.84-3.85-6.35-1.79-10.09h0c2.06-3.73,6.21-5.28,9.26-3.45l35.56,21.36c3.05,1.83,3.86,6.35,1.79,10.08h0C300.26,120.26,296.12,121.8,293.07,120Z" transform="translate(-200.53 -84.31)"/><path class="cls-4" d="M293,105.13l-35.52,21.35c-3,1.83-3.82,6.38-1.74,10.16h0c2.09,3.79,6.26,5.37,9.3,3.54l35.53-21.34c3-1.83,3.82-6.38,1.73-10.17h0C300.18,104.89,296,103.3,293,105.13Z" transform="translate(-200.53 -84.31)"/></svg>